<svg fill="none" viewBox="0 0 40 40" xmlns="http://www.w3.org/2000/svg" xmlns:xlink="http://www.w3.org/1999/xlink"><mask id="a" height="14" maskUnits="userSpaceOnUse" width="18" x="22" y="22"><path clip-rule="evenodd" d="m39.2023 28.5241c0-1.7307-.6854-3.3897-1.9108-4.6132-1.2254-1.2234-2.88-1.911-4.6108-1.911-4.7976 0-10.4815 0-10.4815 0v13.05h10.4815c1.7308 0 3.3854-.6875 4.6108-1.911 1.2254-1.2234 1.9108-2.8824 1.9108-4.6131 0-.0009 0-.0009 0-.0017z" fill="#fff" fill-rule="evenodd"/></mask><g clip-rule="evenodd" fill-rule="evenodd"><path d="m28.5195 14.612c.18-.305.54-.455.88-.364.34.09.57.398.57.75.05 0 .05.001.05.002 0 8.279-6.72 15-15 15-8.27997 0-14.9999688-6.721-14.9999688-15s6.7199988-15 14.9999688-15c.37.001.7.251.79.609.09.359-.06.736-.38.922-2.66 1.651-4.41 4.607-4.41 7.969 0 5.243 4.25 9.5 9.5 9.5 3.36 0 6.32-1.75 8-4.388z" fill="#ffdc55"/><path d="m39.2023 28.5241c0-1.7307-.6854-3.3897-1.9108-4.6132-1.2254-1.2234-2.88-1.911-4.6108-1.911-4.7976 0-10.4815 0-10.4815 0v13.05h10.4815c1.7308 0 3.3854-.6875 4.6108-1.911 1.2254-1.2234 1.9108-2.8824 1.9108-4.6131 0-.0009 0-.0009 0-.0017z" fill="#acacac"/><path d="m39.2023 28.5241c0-1.7307-.6854-3.3897-1.9108-4.6132-1.2254-1.2234-2.88-1.911-4.6108-1.911-4.7976 0-10.4815 0-10.4815 0v13.05h10.4815c1.7308 0 3.3854-.6875 4.6108-1.911 1.2254-1.2234 1.9108-2.8824 1.9108-4.6131 0-.0009 0-.0009 0-.0017z" fill="#d5d5d5"/></g><g mask="url(#a)"><path clip-rule="evenodd" d="m27.6895 14.2999v13.775h2.4191c2.0232 0 3.8592-1.2107 4.6512-3.0761.5184-1.2115 1.7064-1.9989 3.024-1.9989h1.4256v-8.7z" fill="#999" fill-rule="evenodd"/></g><path clip-rule="evenodd" d="m22.2051 35c5.5229 0 10-4.4772 10-10s-4.4771-10-10-10-10 4.4772-10 10 4.4771 10 10 10z" fill="#d5d5d5" fill-rule="evenodd"/></svg>